<?xml version="1.0" encoding="UTF-8"?>
<svg xmlns="http://www.w3.org/2000/svg" xmlns:xlink="http://www.w3.org/1999/xlink" width="150px" height="150px" viewBox="0 0 150 150" version="1.1">
<defs>
<clipPath id="clip1">
  <path d="M 22.5625 65.925781 L 97.859375 65.925781 L 97.859375 84.128906 L 22.5625 84.128906 Z M 22.5625 65.925781 "/>
</clipPath>
<clipPath id="clip2">
  <path d="M 102.15625 62.449219 L 110 62.449219 L 110 87.605469 L 102.15625 87.605469 Z M 102.15625 62.449219 "/>
</clipPath>
<clipPath id="clip3">
  <path d="M 110 62.449219 L 118 62.449219 L 118 87.605469 L 110 87.605469 Z M 110 62.449219 "/>
</clipPath>
<clipPath id="clip4">
  <path d="M 118 62.449219 L 126 62.449219 L 126 87.605469 L 118 87.605469 Z M 118 62.449219 "/>
</clipPath>
</defs>
<g id="surface1">
<rect x="0" y="0" width="150" height="150" style="fill:rgb(29.411765%,56.862745%,94.509804%);fill-opacity:1;stroke:none;"/>
<g clip-path="url(#clip1)" clip-rule="nonzero">
<path style=" stroke:none;fill-rule:nonzero;fill:rgb(100%,100%,100%);fill-opacity:1;" d="M 31.613281 83.859375 L 22.566406 83.859375 L 22.566406 83.429688 L 24.839844 82.335938 L 24.839844 67.71875 L 22.566406 66.621094 L 22.566406 66.191406 L 31.828125 66.191406 C 33.933594 66.191406 35.625 66.570312 36.902344 67.328125 C 38.175781 68.089844 38.8125 69.296875 38.8125 70.957031 C 38.8125 71.957031 38.480469 72.835938 37.8125 73.589844 C 37.140625 74.351562 36.234375 74.941406 35.09375 75.359375 C 33.949219 75.78125 32.648438 75.988281 31.183594 75.988281 L 28.882812 75.988281 L 28.882812 82.335938 L 31.613281 83.429688 Z M 30.007812 67.664062 L 28.882812 67.664062 L 28.882812 74.679688 L 30.167969 74.679688 C 31.59375 74.679688 32.710938 74.347656 33.511719 73.6875 C 34.316406 73.027344 34.71875 72.199219 34.71875 71.199219 C 34.71875 69.949219 34.308594 69.046875 33.484375 68.496094 C 32.664062 67.941406 31.503906 67.664062 30.007812 67.664062 Z M 50.242188 84.128906 C 48.921875 84.128906 47.699219 83.898438 46.574219 83.441406 C 45.449219 82.988281 44.472656 82.355469 43.640625 81.542969 C 42.8125 80.730469 42.167969 79.773438 41.703125 78.667969 C 41.238281 77.558594 41.007812 76.347656 41.007812 75.027344 C 41.007812 73.707031 41.238281 72.492188 41.703125 71.386719 C 42.167969 70.28125 42.8125 69.320312 43.640625 68.507812 C 44.472656 67.695312 45.449219 67.0625 46.574219 66.605469 C 47.699219 66.152344 48.921875 65.925781 50.242188 65.925781 C 51.582031 65.925781 52.8125 66.152344 53.9375 66.605469 C 55.058594 67.0625 56.035156 67.695312 56.863281 68.507812 C 57.695312 69.320312 58.34375 70.28125 58.808594 71.386719 C 59.273438 72.492188 59.503906 73.707031 59.503906 75.027344 C 59.503906 76.347656 59.273438 77.558594 58.808594 78.667969 C 58.34375 79.773438 57.695312 80.730469 56.863281 81.542969 C 56.035156 82.355469 55.058594 82.988281 53.9375 83.441406 C 52.8125 83.898438 51.582031 84.128906 50.242188 84.128906 Z M 50.671875 82.734375 C 51.5625 82.734375 52.351562 82.449219 53.035156 81.878906 C 53.726562 81.308594 54.261719 80.503906 54.644531 79.46875 C 55.027344 78.433594 55.222656 77.222656 55.222656 75.828125 C 55.222656 74.117188 54.984375 72.617188 54.507812 71.332031 C 54.039062 70.046875 53.402344 69.050781 52.597656 68.34375 C 51.792969 67.640625 50.894531 67.289062 49.894531 67.289062 C 49.003906 67.289062 48.207031 67.570312 47.511719 68.132812 C 46.816406 68.695312 46.265625 69.496094 45.863281 70.53125 C 45.464844 71.566406 45.261719 72.777344 45.261719 74.171875 C 45.261719 75.882812 45.503906 77.382812 45.984375 78.667969 C 46.46875 79.953125 47.121094 80.949219 47.941406 81.664062 C 48.761719 82.378906 49.671875 82.734375 50.671875 82.734375 Z M 76.796875 83.859375 L 61.992188 83.859375 L 61.992188 83.429688 L 64.269531 82.335938 L 64.269531 67.71875 L 61.992188 66.621094 L 61.992188 66.191406 L 70.851562 66.191406 L 70.851562 66.621094 L 68.308594 67.71875 L 68.308594 82.386719 L 74.199219 82.386719 L 76.367188 77.328125 L 76.796875 77.328125 Z M 92.796875 83.859375 L 83.964844 83.859375 L 83.964844 83.429688 L 86.371094 82.335938 L 86.371094 75.617188 L 80.539062 67.664062 L 78.71875 66.621094 L 78.71875 66.191406 L 86.988281 66.191406 L 86.988281 66.621094 L 84.980469 67.613281 L 84.980469 67.71875 L 89.636719 74.007812 L 93.8125 67.773438 L 93.8125 67.664062 L 91.753906 66.621094 L 91.753906 66.191406 L 97.855469 66.191406 L 97.855469 66.621094 L 96.0625 67.503906 L 90.414062 75.589844 L 90.414062 82.335938 L 92.796875 83.429688 Z M 92.796875 83.859375 "/>
</g>
<g clip-path="url(#clip2)" clip-rule="nonzero">
<path style="fill-rule:nonzero;fill:rgb(100%,100%,100%);fill-opacity:1;stroke-width:1;stroke-linecap:butt;stroke-linejoin:miter;stroke:rgb(100%,100%,100%);stroke-opacity:1;stroke-miterlimit:4;" d="M 0.00246454 0.00112095 L 36.115567 0.00112095 L 36.115567 132.142245 L 0.00246454 132.142245 Z M 0.00246454 0.00112095 " transform="matrix(0.190374,0,0,0.190374,102.155781,62.449005)"/>
</g>
<g clip-path="url(#clip3)" clip-rule="nonzero">
<path style="fill-rule:nonzero;fill:rgb(100%,100%,100%);fill-opacity:0.74902;stroke-width:1;stroke-linecap:butt;stroke-linejoin:miter;stroke:rgb(100%,100%,100%);stroke-opacity:1;stroke-miterlimit:4;" d="M 44.035827 0.00112095 L 80.169448 0.00112095 L 80.169448 132.142245 L 44.035827 132.142245 Z M 44.035827 0.00112095 " transform="matrix(0.190374,0,0,0.190374,102.155781,62.449005)"/>
</g>
<g clip-path="url(#clip4)" clip-rule="nonzero">
<path style="fill-rule:nonzero;fill:rgb(100%,100%,100%);fill-opacity:0.501961;stroke-width:1;stroke-linecap:butt;stroke-linejoin:miter;stroke:rgb(100%,100%,100%);stroke-opacity:1;stroke-miterlimit:4;" d="M 88.089708 0.00112095 L 124.20281 0.00112095 L 124.20281 132.142245 L 88.089708 132.142245 Z M 88.089708 0.00112095 " transform="matrix(0.190374,0,0,0.190374,102.155781,62.449005)"/>
</g>
</g>
</svg>
